<?xml version="1.0" encoding="UTF-8" standalone="no"?>
<!-- Created with Inkscape (http://www.inkscape.org/) -->

<svg
   xmlns:dc="http://purl.org/dc/elements/1.1/"
   xmlns:cc="http://creativecommons.org/ns#"
   xmlns:rdf="http://www.w3.org/1999/02/22-rdf-syntax-ns#"
   xmlns:svg="http://www.w3.org/2000/svg"
   xmlns="http://www.w3.org/2000/svg"
   xmlns:sodipodi="http://sodipodi.sourceforge.net/DTD/sodipodi-0.dtd"
   xmlns:inkscape="http://www.inkscape.org/namespaces/inkscape"
   width="210mm"
   height="297mm"
   viewBox="0 0 210 297"
   version="1.1"
   id="svg8"
   inkscape:version="0.92.2 2405546, 2018-03-11"
   sodipodi:docname="arrow-2.svg">
  <defs
     id="defs2" />
  <sodipodi:namedview
     id="base"
     pagecolor="#808080"
     bordercolor="#666666"
     borderopacity="1.0"
     inkscape:pageopacity="0"
     inkscape:pageshadow="2"
     inkscape:zoom="1.4"
     inkscape:cx="222.27798"
     inkscape:cy="744.77432"
     inkscape:document-units="mm"
     inkscape:current-layer="layer1"
     showgrid="false"
     inkscape:window-width="1920"
     inkscape:window-height="1055"
     inkscape:window-x="0"
     inkscape:window-y="25"
     inkscape:window-maximized="0"
     inkscape:snap-global="false" />
  <metadata
     id="metadata5">
    <rdf:RDF>
      <cc:Work
         rdf:about="">
        <dc:format>image/svg+xml</dc:format>
        <dc:type
           rdf:resource="http://purl.org/dc/dcmitype/StillImage" />
        <dc:title></dc:title>
      </cc:Work>
    </rdf:RDF>
  </metadata>
  <g
     inkscape:label="Layer 1"
     inkscape:groupmode="layer"
     id="layer1">
    <circle
       style="fill:#ffffff;fill-opacity:1;stroke:#000000;stroke-width:0.26499999;stroke-miterlimit:4;stroke-dasharray:none;stroke-dashoffset:0;stroke-opacity:1"
       id="path3538"
       cx="18.331844"
       cy="59.819939"
       r="5.4806542" />
    <circle
       style="fill:#ffffff;fill-opacity:1;stroke:#000000;stroke-width:0.26499999;stroke-miterlimit:4;stroke-dasharray:none;stroke-dashoffset:0;stroke-opacity:1"
       id="path3538-7"
       cx="75.028275"
       cy="60.764881"
       r="5.4806547" />
    <circle
       style="fill:#ffffff;fill-opacity:1;stroke:#000000;stroke-width:0.26499999;stroke-miterlimit:4;stroke-dasharray:none;stroke-dashoffset:0;stroke-opacity:1"
       id="path3538-0"
       cx="46.491074"
       cy="88.35714"
       r="5.4806547" />
    <circle
       style="fill:#ffffff;fill-opacity:1;stroke:#000000;stroke-width:0.26499999;stroke-miterlimit:4;stroke-dasharray:none;stroke-dashoffset:0;stroke-opacity:1"
       id="path3538-9"
       cx="18.898809"
       cy="120.86309"
       r="5.4806547" />
    <circle
       style="fill:#ffffff;fill-opacity:1;stroke:#000000;stroke-width:0.26499999;stroke-miterlimit:4;stroke-dasharray:none;stroke-dashoffset:0;stroke-opacity:1"
       id="path3538-3"
       cx="77.485123"
       cy="120.29613"
       r="5.4806547" />
    <circle
       style="fill:#ffffff;fill-opacity:1;stroke:#000000;stroke-width:0.26499999;stroke-miterlimit:4;stroke-dasharray:none;stroke-dashoffset:0;stroke-opacity:1"
       id="path3538-6"
       cx="31.561012"
       cy="74.938988"
       r="5.4806547" />
    <circle
       style="fill:#ffffff;fill-opacity:1;stroke:#000000;stroke-width:0.26499999;stroke-miterlimit:4;stroke-dasharray:none;stroke-dashoffset:0;stroke-opacity:1"
       id="path3538-06"
       cx="33.450893"
       cy="105.36607"
       r="5.4806547" />
    <circle
       style="fill:#ffffff;fill-opacity:1;stroke:#000000;stroke-width:0.26499999;stroke-miterlimit:4;stroke-dasharray:none;stroke-dashoffset:0;stroke-opacity:1"
       id="path3538-2"
       cx="50.270832"
       cy="121.80804"
       r="5.4806547" />
    <circle
       style="fill:#ffffff;fill-opacity:1;stroke:#000000;stroke-width:0.26499999;stroke-miterlimit:4;stroke-dasharray:none;stroke-dashoffset:0;stroke-opacity:1"
       id="path3538-61"
       cx="78.241074"
       cy="102.90923"
       r="5.4806547" />
    <circle
       style="fill:#ffffff;fill-opacity:1;stroke:#000000;stroke-width:0.26499999;stroke-miterlimit:4;stroke-dasharray:none;stroke-dashoffset:0;stroke-opacity:1"
       id="path3538-8"
       cx="59.53125"
       cy="74.372025"
       r="5.4806547" />
    <circle
       style="fill:#ffffff;fill-opacity:1;stroke:#000000;stroke-width:0.26499999;stroke-miterlimit:4;stroke-dasharray:none;stroke-dashoffset:0;stroke-opacity:1"
       id="path3538-79"
       cx="78.241074"
       cy="78.71875"
       r="5.4806547" />
    <path
       style="fill:none;stroke:#000000;stroke-width:0.26458332px;stroke-linecap:butt;stroke-linejoin:miter;stroke-opacity:1"
       d="m 19.84375,64.166667 c 0.480497,0.124137 0.588581,0.67767 0.94494,0.944938 0.181708,0.136282 0.389601,0.236088 0.566965,0.377979 0.139134,0.111307 0.251984,0.251984 0.377976,0.377976 0.31498,0.314978 0.62996,0.629959 0.94494,0.94494 0.188988,0.188987 0.358262,0.4 0.566964,0.566963 0.109996,0.088 0.260771,0.110852 0.377977,0.188989 0.07413,0.04942 0.117716,0.135533 0.188988,0.188987 0.181708,0.136281 0.385256,0.241697 0.566964,0.377978 0.158264,0.118697 0.412311,0.489635 0.566964,0.566963 0.05635,0.02817 0.136573,-0.03494 0.188988,0 0.148255,0.09884 0.251984,0.251983 0.377976,0.377975 0.063,0.063 0.109304,0.149146 0.188989,0.18899 0.05635,0.02817 0.129224,-0.01992 0.188988,0 1.368919,0.456305 -0.29796,-0.05449 0.566964,0.377975 0.05635,0.02817 0.132644,-0.02817 0.188989,0 0.07969,0.03984 0.109302,0.149146 0.188987,0.18899 0.05635,0.02817 0.132643,-0.02817 0.188989,0 0.05018,0.02508 0.541875,0.516784 0.566962,0.566962 0.02817,0.05635 -0.04454,0.144444 0,0.188989 0.04455,0.04455 0.144444,-0.04454 0.18899,0 0.234992,0.234993 0.188989,0.475179 0.188989,0.755952"
       id="path3647"
       inkscape:connector-curvature="0" />
    <path
       style="fill:none;stroke:#000000;stroke-width:0.26458332px;stroke-linecap:butt;stroke-linejoin:miter;stroke-opacity:1"
       d="m 34.206844,79.474702 c -0.414796,1.903457 0.685202,0.307224 0.944941,0.566965 0.09961,0.0996 0.08938,0.278368 0.188989,0.377976 0.04454,0.04454 0.144444,-0.04454 0.188986,0 0.04455,0.04454 -0.03494,0.13657 0,0.188986 0.09884,0.148254 0.251987,0.251984 0.377979,0.377976 0.188986,0.188989 0.377976,0.377979 0.566962,0.566965 0.125992,0.125992 0.271068,0.235432 0.377976,0.377976 0.136282,0.181708 0.241697,0.385257 0.377978,0.566965 0.434174,0.5789 -0.120882,-0.309869 0.566963,0.377976 0.0996,0.0996 0.110852,0.260771 0.188989,0.377976 0.0674,0.101094 0.737312,0.741973 0.755952,0.755954 0.112691,0.08452 0.251984,0.125992 0.377975,0.188987 0.125992,0.063 0.244343,0.144443 0.377976,0.188989 0.05976,0.01992 0.132644,-0.02817 0.18899,0 0.07968,0.03984 0.11486,0.139567 0.188989,0.188986 0.125992,0.063 0.251984,0.125992 0.377976,0.18899 0.06299,0 0.13264,-0.02817 0.188986,0 0.07968,0.03984 0.109305,0.149145 0.188989,0.188986 0.112692,0.05635 0.288886,-0.08909 0.377976,0 0.04454,0.04454 -0.04454,0.144444 0,0.188989 0.08909,0.08909 0.265285,-0.05635 0.377976,0 0.626795,0.626796 -0.178178,-0.08909 0.377976,0.18899 0.07968,0.03984 0.10447,0.160813 0.188989,0.188986 0.119526,0.03984 0.25845,-0.03984 0.377976,0 0.169037,0.05635 0.218606,0.298291 0.377976,0.377976 0.05635,0.02817 0.144444,-0.04454 0.188989,0 0.08909,0.08909 -0.08909,0.288888 0,0.377976 0.251984,0.251984 0.188986,-0.314979 0.188986,0.188989"
       id="path3649"
       inkscape:connector-curvature="0" />
    <path
       style="fill:none;stroke:#000000;stroke-width:0.26458332px;stroke-linecap:butt;stroke-linejoin:miter;stroke-opacity:1"
       d="m 42.900298,92.136903 c -0.551942,0.696132 -0.76944,1.576012 -1.322917,2.267858 -0.111307,0.139134 -0.298291,0.218607 -0.377976,0.377976 -0.05635,0.112691 0.03984,0.25845 0,0.377976 -0.08909,0.267268 -0.251986,0.503967 -0.377978,0.755954 -0.063,0.125992 -0.154824,0.241318 -0.188987,0.377976 -0.03056,0.122229 0,0.251983 0,0.377975 -0.063,0.125992 -0.144444,0.24434 -0.188989,0.377976 -0.01992,0.05976 0.02817,0.132644 0,0.188989 -0.03984,0.07968 -0.160814,0.104469 -0.188986,0.188987 -0.03984,0.119526 0.03984,0.25845 0,0.377976 -0.02817,0.08452 -0.149146,0.109304 -0.18899,0.188989 -0.02817,0.05635 0.02817,0.132641 0,0.188987 -0.03984,0.07968 -0.149145,0.109304 -0.188986,0.188989 -0.02817,0.05635 0.02817,0.132643 0,0.188989 -0.07968,0.159367 -0.298294,0.218607 -0.377979,0.377976 -0.02817,0.05635 0.02817,0.132641 0,0.188986 -0.03984,0.07968 -0.149145,0.109305 -0.188986,0.18899 -0.02817,0.05635 0.02817,0.132641 0,0.188986 -0.07969,0.159369 -0.298292,0.21861 -0.377976,0.377979 -0.02817,0.05634 0.02817,0.132643 0,0.188983 -0.07968,0.15937 -0.279141,0.22973 -0.377976,0.37798 -0.156276,0.23441 -0.221702,0.52154 -0.377978,0.75595 -0.04942,0.0741 -0.149146,0.10931 -0.188987,0.18899 -0.02817,0.0564 0.02817,0.13264 0,0.18899 -0.425021,0.85004 0.04704,-0.47207 -0.377976,0.37797 -0.02817,0.0563 0.04454,0.14445 0,0.18899 -0.125124,0.12513 -0.252854,-0.12512 -0.377976,0 -0.08909,0.0891 0.08909,0.28889 0,0.37798 -0.08909,0.0891 -0.288888,-0.0891 -0.377978,0 -0.04454,0.0445 0.04454,0.14444 0,0.18899 -0.278077,0 -0.144441,-0.0446 -0.377976,0.18899"
       id="path3651"
       inkscape:connector-curvature="0" />
    <path
       style="fill:none;stroke:#000000;stroke-width:0.26458332px;stroke-linecap:butt;stroke-linejoin:miter;stroke-opacity:1"
       d="m 29.293156,107.82292 c -0.18899,0.37797 -0.377979,0.75595 -0.566966,1.13392 -0.125991,0.063 -0.299839,0.0718 -0.377975,0.18899 -0.06989,0.10483 0.03984,0.25845 0,0.37798 -0.08909,0.26727 -0.251984,0.50397 -0.377976,0.75595 -0.063,0.12599 -0.110853,0.26077 -0.188989,0.37798 -0.04942,0.0741 -0.143153,0.11259 -0.18899,0.18899 -0.144946,0.24157 -0.233029,0.51437 -0.377975,0.75595 -0.04584,0.0764 -0.135533,0.11771 -0.188987,0.18899 -1.405572,1.87409 0.312431,-0.37416 -0.566965,0.94493 -0.531556,0.79734 0.324337,-1.02664 -0.566964,0.75596 -0.02817,0.0563 0.02817,0.13264 0,0.18899 -0.08684,0.17367 -0.291139,0.2043 -0.377977,0.37797 -0.02817,0.0563 0.02817,0.13264 0,0.18899 -0.03984,0.0797 -0.139569,0.11486 -0.188987,0.18899 -0.636488,0.95473 -0.0015,0.004 -0.188989,0.56696 -0.228378,0.68514 -0.08967,0.13451 -0.377976,0.56697 -0.07814,0.1172 -0.144443,0.24434 -0.188988,0.37797 -0.01992,0.0598 0.03494,0.13658 0,0.18899 -0.09884,0.14826 -0.27914,0.22972 -0.377976,0.37798 -0.03494,0.0524 0,0.12599 0,0.18898 -0.063,0.126 -0.10447,0.26529 -0.188988,0.37798 -0.106908,0.14254 -0.27914,0.22972 -0.377976,0.37798 -0.03494,0.0524 0.02817,0.13264 0,0.18899 -0.03984,0.0797 -0.125992,0.12599 -0.188988,0.18898 0,0.126 0.03984,0.25846 0,0.37798 -0.02485,0.0745 -0.657127,0.65713 -0.755953,0.75595 -0.433318,0.43332 0.07968,-0.11952 -0.377976,0.56697 -0.09884,0.14825 -0.298292,0.2186 -0.377976,0.37797 -0.02817,0.0564 0.02817,0.13265 0,0.18899 -0.116767,0.23353 -0.182465,0.18899 -0.377977,0.18899"
       id="path3653"
       inkscape:connector-curvature="0" />
    <path
       style="fill:none;stroke:#000000;stroke-width:0.26458332px;stroke-linecap:butt;stroke-linejoin:miter;stroke-opacity:1"
       d="m 21.544642,120.29613 c 0.377976,0.56696 0.715586,1.16302 1.133929,1.70089 0.03868,0.0497 0.132643,-0.0282 0.188988,0 0.07969,0.0398 0.102558,0.16738 0.188988,0.18899 0.183346,0.0458 0.377977,0 0.566965,0 0.251984,0 0.505914,-0.0312 0.755952,0 0.257733,0.0322 0.502865,0.13058 0.755952,0.18899 0.565922,0.1306 1.132991,0.25628 1.700893,0.37798 1.9358,0.41481 0.04026,0.0506 1.700892,0.18898 0.506138,0.0422 1.005769,0.14681 1.511906,0.18899 1.051034,0.0876 0.46087,-0.0876 1.511903,0 0.820407,-0.25353 1.504625,0.30859 2.267858,0.37798 0.439161,0.0399 0.881946,0 1.322917,0 0.881946,0 1.763889,0 2.645833,0 2.645833,0 5.291666,0 7.9375,0"
       id="path3655"
       inkscape:connector-curvature="0" />
    <path
       style="fill:none;stroke:#000000;stroke-width:0.26458332px;stroke-linecap:butt;stroke-linejoin:miter;stroke-opacity:1"
       d="m 55.37351,122.94196 c 0.881946,0 1.76389,0 2.645833,0 0.18899,0 0.378915,-0.0188 0.566965,0 0.443238,0.0443 0.879679,0.14467 1.322917,0.18899 0.3761,0.0376 0.755952,0 1.13393,0 1.007936,0 2.015871,0 3.023809,0 0.692955,0 1.385912,0 2.078868,0 0.246203,0 0.734685,0.0421 0.944941,0 0.195342,-0.0391 0.371621,-0.14992 0.566965,-0.18899 0.123545,-0.0247 0.251984,0 0.377976,0 0.314979,0 0.62996,0 0.944941,0 0.755952,0 1.511903,0 2.267855,0"
       id="path3657"
       inkscape:connector-curvature="0" />
    <path
       style="fill:none;stroke:#000000;stroke-width:0.26458332px;stroke-linecap:butt;stroke-linejoin:miter;stroke-opacity:1"
       d="m 76.729166,106.12202 c 0.02551,0.45553 0.269293,0.88819 0.377976,1.32292 0.04371,0.17482 0,0.98859 0,1.13393 0,0.56696 0,1.13393 0,1.70089 0,2.14187 0,4.28373 0,6.42559"
       id="path3659"
       inkscape:connector-curvature="0" />
    <path
       style="fill:none;stroke:#000000;stroke-width:0.26458332px;stroke-linecap:butt;stroke-linejoin:miter;stroke-opacity:1"
       d="m 77.296131,83.254463 c 0.188767,0.504518 -0.09479,1.321173 0,1.889881 0.0427,0.256204 0.152254,0.498825 0.188986,0.755952 0.02673,0.187089 0,0.377976 0,0.566965 0,0.503968 0,1.007935 0,1.511906 0,0.314978 -0.04454,0.633124 0,0.944938 0.01992,0.139449 0.154824,0.241319 0.18899,0.377979 0.03056,0.122229 0,0.251983 0,0.377975 0,0.314979 0,0.62996 0,0.944941 0,0.440971 0,0.881944 0,1.322917 0,1.952876 0,3.905752 0,5.858629"
       id="path3661"
       inkscape:connector-curvature="0" />
    <path
       style="fill:none;stroke:#000000;stroke-width:0.26458332px;stroke-linecap:butt;stroke-linejoin:miter;stroke-opacity:1"
       d="m 74.839284,64.73363 c 0.595884,2.979414 -0.120986,-0.173969 0.377976,1.322916 0.01992,0.05976 0,0.125992 0,0.188989 0.063,0.251984 0.09253,0.51479 0.188989,0.755952 0.03309,0.08272 0.160816,0.104471 0.188989,0.188989 0.03984,0.119526 -0.03056,0.255747 0,0.377976 0.03416,0.136657 0.154824,0.241319 0.188987,0.377976 0.03056,0.122229 -0.03984,0.25845 0,0.377976 0.02817,0.08452 0.160816,0.10447 0.188989,0.188989 0.02884,0.08651 0,0.839454 0,0.944941 0,0.06299 -0.01992,0.129222 0,0.188986 0.04454,0.133636 0.154824,0.241319 0.188987,0.377976 0.06212,0.248484 -0.07824,0.710229 0,0.944941 0.02817,0.08452 0.149145,0.109305 0.188989,0.188989 0.02817,0.05635 0,0.125992 0,0.188987 0,0.125992 0,0.251984 0,0.377976 0,0.314981 0,0.629962 0,0.94494 0,1.196925 0,2.39385 0,3.590775"
       id="path3663"
       inkscape:connector-curvature="0" />
    <path
       style="fill:none;stroke:#000000;stroke-width:0.26458332px;stroke-linecap:butt;stroke-linejoin:miter;stroke-opacity:1"
       d="m 74.839284,64.73363 c -1.385914,-0.18899 -2.764258,-0.445792 -4.157737,-0.566963 -0.08875,-0.0077 -0.13957,0.114858 -0.188989,0.188987 -0.07814,0.117205 -0.125992,0.251984 -0.188986,0.377976 -0.18899,0.188989 -0.400003,0.358261 -0.566965,0.566965 -0.088,0.109995 -0.08939,0.27837 -0.18899,0.377975 -0.0996,0.09961 -0.27837,0.08938 -0.377975,0.18899 -0.468525,0.468524 -0.268701,0.497546 -0.566965,0.94494 -0.09884,0.148254 -0.251984,0.251984 -0.377976,0.377976 -0.188987,0.188987 -0.377976,0.377976 -0.566963,0.566963 -0.188989,0.188989 -0.377978,0.377978 -0.566965,0.566965 -0.063,0.063 -0.109304,0.149145 -0.188989,0.188989 -0.05635,0.02817 -0.132641,-0.02817 -0.188986,0 -0.07969,0.03984 -0.125992,0.125992 -0.18899,0.188987 -0.06299,0.063 -0.125992,0.125991 -0.188986,0.188989 -0.251987,0.251984 -0.503971,0.503967 -0.755955,0.755951 -0.125991,0.125992 -0.229721,0.279141 -0.377975,0.377976 -0.05242,0.03494 -0.132644,-0.02817 -0.188987,0 -0.07968,0.03984 -0.114861,0.139571 -0.188989,0.188989 -0.117205,0.07814 -0.260771,0.11085 -0.377976,0.188987 -0.148254,0.09884 -0.218607,0.298294 -0.377976,0.377978 -0.05634,0.02817 -0.129225,-0.01992 -0.188989,0 -0.133633,0.04454 -0.251984,0.125992 -0.377976,0.188987 -0.125992,0.063 -0.251984,0.125992 -0.377976,0.188989 -0.063,0.063 -0.109304,0.149146 -0.188989,0.188987 -0.05635,0.02817 -0.132641,-0.02817 -0.188986,0 -0.07968,0.03984 -0.109305,0.149145 -0.18899,0.188989 -0.05635,0.02817 -0.132643,-0.02817 -0.188986,0 -0.07969,0.03984 -0.109305,0.149146 -0.188989,0.188987 -0.05635,0.02817 -0.132644,-0.02817 -0.18899,0 -0.467063,0.233534 0.06524,0.188989 -0.377975,0.188989"
       id="path3665"
       inkscape:connector-curvature="0" />
    <path
       style="fill:none;stroke:#000000;stroke-width:0.26458332px;stroke-linecap:butt;stroke-linejoin:miter;stroke-opacity:1"
       d="m 56.696427,77.206844 c -0.3057,0.22728 -0.433255,0.702919 -0.755952,0.944941 -0.181708,0.136282 -0.406355,0.217366 -0.566965,0.377976 -0.113604,0.113607 -0.939403,1.205095 -1.322917,1.511906 -0.17736,0.141888 -0.377975,0.251984 -0.566962,0.377976 -0.314981,0.251984 -0.638678,0.49344 -0.944941,0.755951 -0.470717,0.403471 -0.839081,0.935848 -1.322916,1.322917 -0.109996,0.088 -0.278371,0.08938 -0.377976,0.188989 -0.0996,0.0996 -0.100992,0.267978 -0.188989,0.377976 -0.166963,0.208701 -0.377976,0.377976 -0.566966,0.566962 -0.06299,0.063 -0.139567,0.114861 -0.188986,0.18899 -0.07814,0.117205 -0.08938,0.27837 -0.188989,0.377976 -0.04455,0.04454 -0.132641,-0.02817 -0.188987,0 -0.786524,0.39326 0.202033,-0.01304 -0.188989,0.377975 -0.251984,0.251984 -0.188987,-0.314978 -0.188987,0.18899"
       id="path3667"
       inkscape:connector-curvature="0" />
  </g>
</svg>
