<?xml version="1.0" encoding="UTF-8" standalone="no"?>
<!-- Created with Inkscape (http://www.inkscape.org/) -->

<svg
   xmlns:dc="http://purl.org/dc/elements/1.1/"
   xmlns:cc="http://creativecommons.org/ns#"
   xmlns:rdf="http://www.w3.org/1999/02/22-rdf-syntax-ns#"
   xmlns:svg="http://www.w3.org/2000/svg"
   xmlns="http://www.w3.org/2000/svg"
   xmlns:sodipodi="http://sodipodi.sourceforge.net/DTD/sodipodi-0.dtd"
   xmlns:inkscape="http://www.inkscape.org/namespaces/inkscape"
   width="210mm"
   height="297mm"
   viewBox="0 0 210 297"
   version="1.1"
   id="svg8"
   inkscape:version="0.92.2 2405546, 2018-03-11"
   sodipodi:docname="diagonal-path.svg">
  <defs
     id="defs2" />
  <sodipodi:namedview
     id="base"
     pagecolor="#808080"
     bordercolor="#666666"
     borderopacity="1.0"
     inkscape:pageopacity="0"
     inkscape:pageshadow="2"
     inkscape:zoom="1.4"
     inkscape:cx="73.706553"
     inkscape:cy="744.77432"
     inkscape:document-units="mm"
     inkscape:current-layer="layer1"
     showgrid="false"
     inkscape:window-width="1920"
     inkscape:window-height="1055"
     inkscape:window-x="0"
     inkscape:window-y="25"
     inkscape:window-maximized="0" />
  <metadata
     id="metadata5">
    <rdf:RDF>
      <cc:Work
         rdf:about="">
        <dc:format>image/svg+xml</dc:format>
        <dc:type
           rdf:resource="http://purl.org/dc/dcmitype/StillImage" />
        <dc:title></dc:title>
      </cc:Work>
    </rdf:RDF>
  </metadata>
  <g
     inkscape:label="Layer 1"
     inkscape:groupmode="layer"
     id="layer1">
    <circle
       style="fill:#ffffff;fill-opacity:1;stroke:#000000;stroke-width:0.26499999;stroke-miterlimit:4;stroke-dasharray:none;stroke-dashoffset:0;stroke-opacity:1"
       id="path812"
       cx="101.37486"
       cy="-8.6483412"
       r="5.1971726"
       transform="rotate(45)" />
    <circle
       style="fill:#ffffff;fill-opacity:1;stroke:#000000;stroke-width:0.26499999;stroke-miterlimit:4;stroke-dasharray:none;stroke-dashoffset:0;stroke-opacity:1"
       id="path814"
       cx="101.37486"
       cy="26.881424"
       r="5.1971726"
       transform="rotate(45)" />
    <ellipse
       style="fill:#ffffff;fill-opacity:1;stroke:#000000;stroke-width:0.26499999;stroke-miterlimit:4;stroke-dasharray:none;stroke-dashoffset:0;stroke-opacity:1"
       id="path816"
       cx="101.37486"
       cy="58.171967"
       rx="4.9136906"
       ry="7.9505181"
       transform="rotate(45)" />
    <path
       style="fill:none;stroke:#000000;stroke-width:0.26458332px;stroke-linecap:butt;stroke-linejoin:miter;stroke-opacity:1"
       d="m 73.388201,68.774781 c -0.330531,0.550884 -0.738547,1.052732 -1.069078,1.603617 -0.10249,0.170825 -0.151481,0.372436 -0.26727,0.53454 -0.109845,0.153785 -0.281232,0.254631 -0.400903,0.400903 -0.282079,0.344757 -0.519733,0.724319 -0.801807,1.069079 -0.239351,0.292539 -0.565689,0.506658 -0.80181,0.801809 -0.239375,0.299224 -0.428796,0.636222 -0.668174,0.935442 -0.118061,0.147576 -0.26727,0.26727 -0.400905,0.400905 -0.311815,0.311815 -0.623628,0.623628 -0.935444,0.935444 -0.712717,0.712717 -1.425437,1.425437 -2.138155,2.138156 -3.162689,3.162688 -6.325378,6.325377 -9.488069,9.488068"
       id="path818"
       inkscape:connector-curvature="0" />
    <path
       style="fill:none;stroke:#000000;stroke-width:0.26458332px;stroke-linecap:butt;stroke-linejoin:miter;stroke-opacity:1"
       d="m 49.066675,94.432655 c -0.935444,0.935444 -1.870887,1.870887 -2.806328,2.806328 -0.35636,0.356361 -0.712721,0.712721 -1.069082,1.069082 -0.133636,0.133636 -0.291059,0.247119 -0.400901,0.400901 -0.115789,0.162104 -0.164775,0.363717 -0.267273,0.534544 -0.09723,0.162054 -0.291052,0.247112 -0.400901,0.400901 -0.150975,0.211361 -0.249937,0.456819 -0.400904,0.668169 -0.07323,0.10253 -0.178183,0.17819 -0.267272,0.26727 -0.267265,0.26727 -0.534537,0.53454 -0.801809,0.80181 -0.712714,0.71272 -1.425436,1.42544 -2.138157,2.13816 -0.311813,0.31181 -0.623626,0.62363 -0.935439,0.93544 -0.06017,0.0602 -0.380571,0.3399 -0.400908,0.40091 -0.02819,0.0845 0.03984,0.18758 -10e-7,0.26727 -0.04557,0.0912 -0.706265,0.70626 -0.801809,0.80181 -0.623626,0.62362 -1.247252,1.24725 -1.870884,1.87088"
       id="path820"
       inkscape:connector-curvature="0" />
  </g>
</svg>
