<?xml version="1.0" encoding="UTF-8" standalone="no"?>
<!-- Created with Inkscape (http://www.inkscape.org/) -->

<svg
   xmlns:dc="http://purl.org/dc/elements/1.1/"
   xmlns:cc="http://creativecommons.org/ns#"
   xmlns:rdf="http://www.w3.org/1999/02/22-rdf-syntax-ns#"
   xmlns:svg="http://www.w3.org/2000/svg"
   xmlns="http://www.w3.org/2000/svg"
   xmlns:sodipodi="http://sodipodi.sourceforge.net/DTD/sodipodi-0.dtd"
   xmlns:inkscape="http://www.inkscape.org/namespaces/inkscape"
   width="95.747574mm"
   height="99.096954mm"
   viewBox="0 0 95.747574 99.096954"
   version="1.1"
   id="svg8"
   inkscape:version="0.92.2 2405546, 2018-03-11"
   sodipodi:docname="text-circle.svg">
  <defs
     id="defs2" />
  <sodipodi:namedview
     id="base"
     pagecolor="#808080"
     bordercolor="#666666"
     borderopacity="1.0"
     inkscape:pageopacity="0"
     inkscape:pageshadow="2"
     inkscape:zoom="1.4"
     inkscape:cx="117.20544"
     inkscape:cy="186.76933"
     inkscape:document-units="mm"
     inkscape:current-layer="layer1"
     showgrid="false"
     inkscape:window-width="1920"
     inkscape:window-height="1055"
     inkscape:window-x="0"
     inkscape:window-y="25"
     inkscape:window-maximized="0" />
  <metadata
     id="metadata5">
    <rdf:RDF>
      <cc:Work
         rdf:about="">
        <dc:format>image/svg+xml</dc:format>
        <dc:type
           rdf:resource="http://purl.org/dc/dcmitype/StillImage" />
        <dc:title></dc:title>
      </cc:Work>
    </rdf:RDF>
  </metadata>
  <g
     inkscape:label="Layer 1"
     inkscape:groupmode="layer"
     id="layer1"
     transform="translate(-27.422468,-50.264228)">
    <text
       xml:space="preserve"
       style="font-style:normal;font-weight:normal;font-size:10.58333302px;line-height:1.25;font-family:sans-serif;letter-spacing:0px;word-spacing:0px;fill:#000000;fill-opacity:1;stroke:none;stroke-width:0.26458332"
       x="44.034225"
       y="60.386902"
       id="text814"><tspan
         sodipodi:role="line"
         id="tspan812"
         x="44.034225"
         y="60.386902"
         style="stroke-width:0.26458332">1</tspan></text>
    <text
       xml:space="preserve"
       style="font-style:normal;font-weight:normal;font-size:10.58333302px;line-height:1.25;font-family:sans-serif;letter-spacing:0px;word-spacing:0px;fill:#000000;fill-opacity:1;stroke:none;stroke-width:0.26458332"
       x="26.647322"
       y="110.46875"
       id="text818"><tspan
         sodipodi:role="line"
         id="tspan816"
         x="26.647322"
         y="110.46875"
         style="stroke-width:0.26458332">2</tspan></text>
    <text
       xml:space="preserve"
       style="font-style:normal;font-weight:normal;font-size:10.58333302px;line-height:1.25;font-family:sans-serif;letter-spacing:0px;word-spacing:0px;fill:#000000;fill-opacity:1;stroke:none;stroke-width:0.26458332"
       x="48.758923"
       y="149.21132"
       id="text822"><tspan
         sodipodi:role="line"
         id="tspan820"
         x="48.758923"
         y="149.21132"
         style="stroke-width:0.26458332">3</tspan></text>
    <text
       xml:space="preserve"
       style="font-style:normal;font-weight:normal;font-size:10.58333302px;line-height:1.25;font-family:sans-serif;letter-spacing:0px;word-spacing:0px;fill:#000000;fill-opacity:1;stroke:none;stroke-width:0.26458332"
       x="97.706841"
       y="148.26637"
       id="text826"><tspan
         sodipodi:role="line"
         id="tspan824"
         x="97.706841"
         y="148.26637"
         style="stroke-width:0.26458332">4</tspan></text>
    <text
       xml:space="preserve"
       style="font-style:normal;font-weight:normal;font-size:10.58333302px;line-height:1.25;font-family:sans-serif;letter-spacing:0px;word-spacing:0px;fill:#000000;fill-opacity:1;stroke:none;stroke-width:0.26458332"
       x="117.36161"
       y="109.14583"
       id="text830"><tspan
         sodipodi:role="line"
         id="tspan828"
         x="117.36161"
         y="109.14583"
         style="stroke-width:0.26458332">5</tspan></text>
    <text
       xml:space="preserve"
       style="font-style:normal;font-weight:normal;font-size:10.58333302px;line-height:1.25;font-family:sans-serif;letter-spacing:0px;word-spacing:0px;fill:#000000;fill-opacity:1;stroke:none;stroke-width:0.26458332"
       x="99.40773"
       y="58.119045"
       id="text834"><tspan
         sodipodi:role="line"
         id="tspan832"
         x="99.40773"
         y="58.119045"
         style="stroke-width:0.26458332">6</tspan></text>
    <path
       style="fill:none;stroke:#000000;stroke-width:0.26458332px;stroke-linecap:butt;stroke-linejoin:miter;stroke-opacity:1"
       d="m 52.727677,63.788689 c 0.59586,0.95876 0.952804,2.04538 1.511906,3.023811 0.546735,0.956787 1.127921,1.89351 1.700892,2.83482 0.309007,0.507654 0.647174,0.99758 0.944941,1.511906 0.395486,0.683112 0.740077,1.394809 1.133927,2.078868 0.80323,1.395082 1.675062,2.750527 2.456847,4.15774 0.478864,0.861957 0.821288,1.79692 1.322917,2.645833 1.316812,2.228453 3.81281,6.042406 5.480653,8.504462 0.686009,1.01268 1.415275,1.996305 2.078871,3.023809 1.289698,1.996954 2.519841,4.031748 3.779761,6.047621 0.629959,1.007936 1.230561,2.034829 1.889881,3.023811 0.601197,0.90179 1.308002,1.73145 1.889882,2.64583 0.496414,0.78008 3.888235,6.41106 4.913688,8.31548 0.400701,0.74415 0.723474,1.52903 1.13393,2.26785 0.850038,1.53007 1.795793,3.00565 2.645833,4.53572 0.410456,0.73882 0.699088,1.54312 1.133928,2.26785 0.324112,0.54019 0.793274,0.982 1.13393,1.51191 1.021921,1.58966 1.910302,3.35478 3.023809,4.91369 1.016733,1.42343 1.622063,2.05512 2.645833,3.59078 0.156274,0.23441 0.233029,0.51437 0.377976,0.75595 0.04584,0.0764 0.125992,0.12599 0.188989,0.18899 0.125992,0.25198 0.273344,0.49437 0.377976,0.75595 0.02339,0.0585 -0.01992,0.12922 0,0.18898 0.04454,0.13364 0.144442,0.24435 0.188987,0.37798 0.01992,0.0598 -0.04454,0.14444 0,0.18899 0.0996,0.0996 0.29346,0.0763 0.377976,0.18899 0.119528,0.15937 0.115003,0.382 0.188989,0.56696 0.05232,0.13079 0.11085,0.26077 0.188989,0.37798 0.04942,0.0741 0.139568,0.11486 0.188987,0.18899 0.156273,0.23441 0.221702,0.52154 0.377975,0.75595 0.04942,0.0741 0.139571,0.11486 0.18899,0.18899 0.416372,0.0952 0.0999,0.38878 0.188986,0.56696 0.233535,0.46707 0.188989,-0.0652 0.188989,0.37798"
       id="path836"
       inkscape:connector-curvature="0" />
    <path
       style="fill:none;stroke:#000000;stroke-width:0.26458332px;stroke-linecap:butt;stroke-linejoin:miter;stroke-opacity:1"
       d="m 34.395833,107.63393 c 0.377976,-0.063 0.753083,-0.14667 1.133927,-0.18899 0.187833,-0.0209 0.377979,0 0.566965,0 0.251984,0 0.503968,0 0.755952,0 1.13393,0 2.267857,0 3.401788,0 0.818948,0 1.642395,-0.0857 2.456844,0 0.396232,0.0417 0.737483,0.33833 1.13393,0.37798 0.877567,0.0877 1.763887,0 2.645833,0 1.448909,0 2.897817,0 4.346726,0 0.692954,0 1.385911,0 2.078868,0 0.818949,0 1.642906,0.0904 2.456844,0 0.337169,-0.0375 0.615826,-0.2957 0.944941,-0.37798 0.432149,-0.10804 0.881552,-0.1288 1.322917,-0.18899 0.944562,-0.1288 1.889527,-0.25468 2.834822,-0.37797 0.503624,-0.0657 1.005631,-0.14849 1.511903,-0.18899 1.070933,-0.063 2.141866,-0.126 3.212799,-0.18899 0.629959,-0.12599 1.251373,-0.30703 1.889881,-0.37798 0.500886,-0.0556 1.007936,0 1.511904,0 1.007938,0 2.020014,0.0913 3.023811,0 0.396785,-0.0361 0.740926,-0.31247 1.133928,-0.37797 0.372832,-0.0621 0.755951,0 1.133927,0 1.385914,0 2.771825,0 4.157739,0 3.212799,0 6.425594,0 9.638393,0 7.433532,0 14.867065,0 22.300595,0 1.19693,0 2.39385,0 3.59077,0 0.0458,0 0.56089,0.006 0.56697,0 0.25198,-0.25199 -0.31498,-0.18899 0.18899,-0.18899"
       id="path838"
       inkscape:connector-curvature="0" />
    <path
       style="fill:none;stroke:#000000;stroke-width:0.26458332px;stroke-linecap:butt;stroke-linejoin:miter;stroke-opacity:1"
       d="m 54.050593,138.06101 c 0.314982,-0.37798 0.649732,-0.74032 0.944941,-1.13393 0.08452,-0.11269 0.104471,-0.26528 0.188989,-0.37798 0.106908,-0.14254 0.251984,-0.25198 0.377976,-0.37797 0.314981,-0.31498 0.62996,-0.62996 0.944941,-0.94494 0.251984,-0.25199 0.524037,-0.48539 0.755952,-0.75595 0.147817,-0.17246 0.241694,-0.38526 0.377976,-0.56697 0.430958,-0.57461 0.879157,-1.13611 1.322916,-1.70089 0.857131,-1.09089 1.822863,-2.09591 2.645834,-3.2128 0.301281,-0.40888 0.48977,-0.89036 0.755954,-1.32291 0.23808,-0.38689 0.512064,-0.75068 0.755951,-1.13393 0.957202,-1.50418 1.866252,-3.03884 2.83482,-4.53572 0.370176,-0.57209 0.803011,-1.10523 1.13393,-1.70089 0.615683,-1.10823 1.102225,-2.28427 1.700893,-3.40179 0.346919,-0.64758 0.779886,-1.24616 1.133927,-1.88988 0.339426,-0.61713 0.58588,-1.28396 0.944941,-1.88988 0.65029,-1.09736 1.410346,-2.12645 2.078871,-3.2128 1.255239,-2.03976 1.347065,-2.7869 2.645833,-5.29166 0.273566,-0.5276 0.643615,-0.99966 0.944938,-1.51191 0.328846,-0.55903 0.637448,-1.12983 0.944941,-1.70089 0.574493,-1.06691 1.090327,-2.166112 1.700893,-3.212798 0.273055,-0.468091 0.70259,-0.838216 0.944941,-1.322917 0.329752,-0.659506 0.465497,-1.401138 0.755954,-2.078868 0.466238,-1.08789 0.982586,-2.154164 1.511903,-3.212799 0.517181,-1.034362 1.183712,-1.989444 1.700893,-3.023809 0.466341,-0.93268 0.874596,-1.893345 1.322916,-2.83482 0.181687,-0.381539 0.389874,-0.750234 0.566965,-1.13393 0.201049,-0.435604 0.372113,-0.884502 0.566965,-1.322916 0.895848,-2.015657 0.728867,-1.646722 1.511904,-3.212796 0.188989,-0.377978 0.349543,-0.771562 0.566965,-1.13393 0.35058,-0.584301 0.746064,-1.140645 1.133927,-1.700893 0.179292,-0.258974 0.417634,-0.47862 0.566965,-0.755951 0.294151,-0.54628 0.461804,-1.154615 0.755952,-1.700893 0.149333,-0.277331 0.449984,-0.463502 0.566965,-0.755954 0.142314,-0.355782 0.06011,-0.773062 0.188989,-1.133927 0.855977,-2.396744 0.440708,-0.723993 1.322917,-2.267858 0.09883,-0.172963 0.08649,-0.396142 0.188986,-0.566965 0.278813,-0.464685 0.634175,-0.878964 0.944941,-1.322916 0.260509,-0.372153 0.515189,-0.748708 0.755952,-1.133928 1.964541,-3.143263 -0.25155,0.503103 0.755954,-1.511906 0.03984,-0.07968 0.149145,-0.109302 0.188986,-0.188986 0.08909,-0.178181 0.07849,-0.401212 0.18899,-0.566965 0.03494,-0.05242 0.144444,0.04454 0.188986,0 0.08909,-0.08909 -0.08909,-0.288886 0,-0.377976 0.04454,-0.04454 0.144444,0.04454 0.188989,0 0.08909,-0.08909 -0.05634,-0.265287 0,-0.377976 0.07969,-0.159369 0.298292,-0.218609 0.377976,-0.377976 0.02817,-0.05635 -0.02817,-0.132643 0,-0.188989 0.03984,-0.07968 0.149146,-0.109305 0.188989,-0.188989 0.02817,-0.05635 -0.02817,-0.132641 0,-0.188987 0.03984,-0.07968 0.149146,-0.109305 0.188987,-0.188989 0.05635,-0.112691 -0.05635,-0.265285 0,-0.377976 0.03984,-0.07968 0.135536,-0.117716 0.188989,-0.188986 0.342085,-0.456116 0.347115,-0.505244 0.566965,-0.944941 0.063,-0.125992 0.11085,-0.260771 0.188987,-0.377976 0.04942,-0.07413 0.149146,-0.109305 0.188989,-0.188989 0.02817,-0.05635 0,-0.125992 0,-0.18899 0,-0.06299 0,-0.125992 0,-0.188986"
       id="path840"
       inkscape:connector-curvature="0" />
    <path
       style="fill:none;stroke:#000000;stroke-width:0.26458332px;stroke-linecap:butt;stroke-linejoin:miter;stroke-opacity:1"
       d="m 43.46726,64.544643 c 0,0.755952 0,1.511903 0,2.267857 0,0.188987 0.02344,0.379434 0,0.566963 -0.03984,0.318738 -0.140144,0.627459 -0.188986,0.944941 -0.115094,0.748098 -0.161317,1.698537 -0.377976,2.456846 -0.164182,0.574638 -0.402783,1.126255 -0.566965,1.700893 -0.0083,0.02892 -0.372769,1.876338 -0.377976,1.889879 -0.202269,0.525899 -0.539239,0.991796 -0.755952,1.511906 -0.0999,0.23976 -0.09779,0.512752 -0.188989,0.755951 -0.09892,0.26379 -0.273346,0.494377 -0.377976,0.755955 -0.147971,0.369924 -0.23808,0.760873 -0.377975,1.133927 -0.04946,0.131895 -0.144444,0.24434 -0.18899,0.377976 -0.08214,0.246412 -0.08667,0.517215 -0.188986,0.755952 -0.08947,0.208772 -0.2764,0.36381 -0.377979,0.566965 -0.08909,0.178181 -0.110514,0.38386 -0.188986,0.566965 -0.110977,0.258947 -0.288888,0.488682 -0.377976,0.755951 -0.432464,1.297387 0.723625,-0.880284 -0.188989,0.944941 -0.164272,0.328546 -0.35346,0.646033 -0.566965,0.944941 -0.103564,0.144989 -0.298292,0.218607 -0.377976,0.377976 -0.116158,0.232317 -0.0835,0.518599 -0.188987,0.755951 -0.149185,0.335669 -0.40269,0.616395 -0.566965,0.944941 -0.08909,0.178181 -0.0999,0.388784 -0.188989,0.566965 -0.900845,1.801694 0.253807,-1.40667 -0.944938,1.889882 -1.048867,2.884376 0.658855,-1.128726 -0.566965,1.322917 -0.151715,0.303426 -0.244343,0.633124 -0.377976,0.944938 -0.05549,0.129474 -0.104471,0.265287 -0.188989,0.377978 -0.106908,0.142542 -0.289574,0.223271 -0.377976,0.377976 -0.168312,0.294545 -0.244343,0.633124 -0.377976,0.944941 -0.05549,0.129474 -0.144444,0.24434 -0.188989,0.377976 -0.01992,0.05976 0.02817,0.132641 0,0.188986 -0.101576,0.203158 -0.261115,0.372198 -0.377976,0.566965 -0.265925,0.443212 -0.161629,0.404069 -0.377976,0.944941 -0.05232,0.130789 -0.144444,0.24434 -0.188989,0.377976 -0.01992,0.05976 0,0.125992 0,0.188989 -0.063,0.188987 -0.0999,0.388784 -0.188987,0.566963 -0.03984,0.07968 -0.160816,0.10447 -0.188989,0.188989 -0.03984,0.119525 0.04679,0.260995 0,0.377976 -0.08435,0.210888 -0.261114,0.372197 -0.377976,0.566965 -0.07247,0.120787 -0.125992,0.251983 -0.188986,0.377975 -0.063,0.125992 -0.144444,0.24434 -0.188989,0.377976 -0.08214,0.246409 -0.09252,0.514789 -0.18899,0.755952 -0.03309,0.08272 -0.149145,0.109304 -0.188986,0.188989 -0.08909,0.178178 -0.140674,0.3737 -0.188989,0.566965 -0.01527,0.06111 0.02817,0.132641 0,0.188987 -0.233532,0.467066 -0.188987,-0.06523 -0.188987,0.377975"
       id="path842"
       inkscape:connector-curvature="0" />
    <path
       style="fill:none;stroke:#000000;stroke-width:0.26458332px;stroke-linecap:butt;stroke-linejoin:miter;stroke-opacity:1"
       d="m 30.616072,113.68155 c 0.314979,0.37797 0.64973,0.74031 0.944938,1.13393 0.202782,0.27037 0.250931,0.64849 0.377979,0.94494 0.166465,0.38842 0.357298,0.76701 0.566962,1.13392 0.182245,0.31893 0.38472,0.62602 0.566965,0.94494 0.139777,0.24461 0.233029,0.51438 0.377976,0.75596 0.116861,0.19476 0.261117,0.37219 0.377976,0.56696 0.144947,0.24158 0.221702,0.52154 0.377976,0.75595 0.17472,0.26208 0.392244,0.49388 0.566965,0.75595 0.156273,0.23442 0.19762,0.53953 0.377976,0.75596 0.228136,0.27376 0.548822,0.46597 0.755954,0.75595 0.115787,0.16211 0.0999,0.38878 0.188986,0.56697 0.164275,0.32854 0.377976,0.62996 0.566965,0.94494 2.095003,3.49167 -0.509391,-0.81503 0.944941,1.5119 0.194683,0.31149 0.35346,0.64604 0.566963,0.94494 0.103565,0.14499 0.271068,0.23543 0.377978,0.37798 0.08452,0.11269 0.125992,0.25198 0.188987,0.37797 0.188989,0.37798 0.377975,0.75596 0.566965,1.13393 0.06299,0.12599 0.11085,0.26077 0.188986,0.37798 0.288309,0.43246 0.149598,-0.11818 0.377979,0.56696 0.01992,0.0598 -0.02817,0.13264 0,0.18899 0.03984,0.0797 0.135533,0.11772 0.188986,0.18899 0.136282,0.18171 0.241695,0.38525 0.377976,0.56696 0.05345,0.0713 0.149146,0.10931 0.188989,0.18899 0.08909,0.17818 0.0732,0.40486 0.188987,0.56697 0.207132,0.28998 0.527817,0.48219 0.755954,0.75595 0.09018,0.10821 0.104468,0.26528 0.188987,0.37797 0.106907,0.14255 0.27914,0.22972 0.377976,0.37798 0.156276,0.23441 0.251986,0.50397 0.377978,0.75595 0.063,0.12599 0.144441,0.24434 0.188987,0.37798 0.01992,0.0598 -0.02817,0.13264 0,0.18899 -0.104775,0.46805 0.4261,0.47422 0.566965,0.75595 0.08909,0.17818 0.0999,0.38878 0.188986,0.56696 0.03984,0.0797 0.149148,0.10931 0.188989,0.18899 0.02817,0.0563 -0.01992,0.12923 0,0.18899 0.04455,0.13363 0.144444,0.24434 0.18899,0.37798 0.01992,0.0598 -0.02817,0.13264 0,0.18898 0.03984,0.0797 0.160813,0.10447 0.188986,0.18899 0.03984,0.11953 -0.03984,0.25845 0,0.37798 0.05635,0.16903 0.298292,0.2186 0.377976,0.37797 0.08909,0.17818 0.0999,0.38879 0.188989,0.56697 0.03984,0.0797 0.139571,0.11486 0.188987,0.18899 0.636489,0.95473 0.0016,0.004 0.188989,0.56696 0.04454,0.13364 0.08938,0.27837 0.188989,0.37798 0.251984,0.25198 0.188987,-0.31499 0.188987,0.18899"
       id="path844"
       inkscape:connector-curvature="0" />
    <path
       style="fill:none;stroke:#000000;stroke-width:0.26458332px;stroke-linecap:butt;stroke-linejoin:miter;stroke-opacity:1"
       d="m 58.775298,145.24256 c 11.780258,0 23.560515,0 35.340773,0"
       id="path846"
       inkscape:connector-curvature="0" />
    <path
       style="fill:none;stroke:#000000;stroke-width:0.26458332px;stroke-linecap:butt;stroke-linejoin:miter;stroke-opacity:1"
       d="m 107.53422,137.49405 c 0.66219,-0.85364 0.94578,-1.92902 1.51191,-2.83482 0.64079,-1.02526 0.14886,0.39066 0.75595,-0.94495 0.22273,-0.48999 0.34424,-1.02191 0.56697,-1.5119 0.094,-0.20678 0.29061,-0.3573 0.37797,-0.56696 0.22986,-0.55167 0.35243,-1.1431 0.56697,-1.7009 0.10113,-0.26295 0.26355,-0.49851 0.37797,-0.75595 0.13778,-0.31 0.24434,-0.63313 0.37798,-0.94494 0.2444,-0.57027 0.52553,-1.12483 0.75595,-1.70089 0.14797,-0.36993 0.21311,-0.77122 0.37798,-1.13393 0.152,-0.33441 0.3941,-0.62083 0.56696,-0.94494 0.33145,-0.62146 0.6471,-1.25164 0.94494,-1.88988 0.14346,-0.30742 0.25199,-0.62996 0.37798,-0.94494 0.38851,-0.97129 0.55632,-1.46667 1.13393,-2.45685 0.15871,-0.27207 0.41069,-0.48247 0.56696,-0.75595 0.25436,-0.44512 0.20831,-1.05946 0.37798,-1.51191 -0.10478,-0.46805 0.4261,-0.47422 0.56696,-0.75595 0.91262,-1.82523 -0.24347,0.35245 0.18899,-0.94494 0.0563,-0.16904 0.29829,-0.21861 0.37798,-0.37797 0.0282,-0.0563 -0.0199,-0.12923 0,-0.18899 0.4563,-1.36892 -0.0545,0.29796 0.37797,-0.56697 0.0563,-0.11269 -0.0563,-0.26528 0,-0.37797 0.0398,-0.0797 0.14915,-0.10931 0.18899,-0.18899 0.0282,-0.0563 -0.0199,-0.12923 0,-0.18899 0.0891,-0.26727 0.30965,-0.48264 0.37798,-0.75595 0.0305,-0.12223 -0.0399,-0.25845 0,-0.37798 0.0282,-0.0845 0.16738,-0.10256 0.18898,-0.18899 0.0458,-0.18334 -0.0458,-0.38362 0,-0.56696 0.0216,-0.0864 0.14915,-0.1093 0.18899,-0.18899 0.0287,-0.0575 0,-0.62545 0,-0.75595"
       id="path848"
       inkscape:connector-curvature="0" />
    <path
       style="fill:none;stroke:#000000;stroke-width:0.26458332px;stroke-linecap:butt;stroke-linejoin:miter;stroke-opacity:1"
       d="m 120.38542,97.42857 c -0.063,-0.251984 -0.10686,-0.509543 -0.18899,-0.755952 -0.16734,-0.502012 -0.77761,-1.954834 -0.94494,-2.456846 -0.27096,-0.812869 -0.50975,-1.636141 -0.75596,-2.456844 -0.13178,-0.439278 -0.28188,-0.87448 -0.37797,-1.322917 -0.0933,-0.435562 -0.10163,-0.886119 -0.18899,-1.322917 -0.16483,-0.82415 -0.39382,-1.634402 -0.56696,-2.456844 -0.41923,-0.594259 -0.0648,-1.269074 -0.18899,-1.889881 -0.14086,-0.704319 -0.4261,-1.374553 -0.56697,-2.078869 -0.0494,-0.247091 0.0278,-0.50551 0,-0.755954 -0.0355,-0.319252 -0.12599,-0.62996 -0.18898,-0.944941 -0.126,-0.62996 -0.24337,-1.261705 -0.37798,-1.889879 -0.0544,-0.253973 -0.15226,-0.498824 -0.18899,-0.755954 -0.0267,-0.187087 0.0287,-0.380172 0,-0.566963 -0.0977,-0.634965 -0.28712,-1.253902 -0.37798,-1.889881 -0.0356,-0.249452 0.0547,-0.509969 0,-0.755952 -0.0736,-0.331166 -0.27069,-0.623107 -0.37797,-0.944941 -0.14503,-0.435083 -0.23295,-0.887833 -0.37798,-1.322916 -0.10728,-0.321837 -0.30689,-0.613228 -0.37797,-0.944941 -0.11953,-0.557792 -0.0952,-1.138201 -0.18899,-1.700893 -0.0327,-0.1965 -0.14992,-0.371623 -0.18899,-0.566965 -0.0247,-0.123544 0,-0.251984 0,-0.377975 -0.063,-0.314982 -0.10074,-0.636083 -0.18899,-0.944941 -0.0387,-0.135443 -0.15482,-0.241319 -0.18899,-0.377976 -0.0306,-0.12223 0.0496,-0.26217 0,-0.377976 -0.14469,-0.337627 -0.42226,-0.607314 -0.56696,-0.944941 -0.0496,-0.115805 0.0306,-0.255746 0,-0.377976 -0.0342,-0.136657 -0.13667,-0.247189 -0.18899,-0.377975 -0.15367,-0.384173 -0.15637,-0.612535 -0.37797,-0.944941 -0.0494,-0.07413 -0.14915,-0.109305 -0.18899,-0.188989 -0.0891,-0.178179 -0.0999,-0.388784 -0.18899,-0.566963 -0.0181,-0.03618 -0.71978,-0.737865 -0.75595,-0.755954 -0.0564,-0.02817 -0.13265,0.02817 -0.18899,0 -0.0797,-0.03984 -0.12599,-0.125992 -0.18899,-0.188987 -0.18899,-0.188989 -0.37798,-0.377975 -0.56696,-0.566965 -0.063,-0.063 -0.11486,-0.13957 -0.18899,-0.188989 -1.29601,-0.863999 0.85285,0.852855 -0.75595,-0.755952 -0.0446,-0.04454 -0.14445,0.04455 -0.18899,0 -0.0996,-0.09961 -0.0894,-0.27837 -0.18899,-0.377975 -0.0996,-0.09961 -0.27837,-0.08938 -0.37798,-0.18899 -0.0445,-0.04454 0.035,-0.13657 0,-0.188986 -0.0988,-0.148254 -0.27106,-0.235434 -0.37797,-0.377976 -0.0845,-0.112691 -0.11085,-0.260771 -0.18899,-0.377976 -0.0494,-0.07413 -0.14915,-0.109304 -0.18899,-0.188989 -0.0282,-0.05635 0.0282,-0.132644 0,-0.188989 -0.0797,-0.159367 -0.29829,-0.218607 -0.37798,-0.377976 -0.0282,-0.05635 0.0446,-0.144441 0,-0.188987 -0.0445,-0.04454 -0.14444,0.04455 -0.18898,0 -0.18644,-0.186433 0.38725,-0.377975 -0.18899,-0.377975"
       id="path850"
       inkscape:connector-curvature="0" />
    <path
       style="fill:none;stroke:#000000;stroke-width:0.26458332px;stroke-linecap:butt;stroke-linejoin:miter;stroke-opacity:1"
       d="m 97.13988,53.016369 c -0.622665,0.117205 -1.264785,-0.07814 -1.889881,0 -0.257733,0.03222 -0.496718,0.172786 -0.755952,0.188987 -5.721723,0 0.461523,-0.09376 -3.779763,0.188989 -3.430164,0.228676 1.63391,-0.582216 -4.535713,0.188989 -0.455078,0.05688 -0.866576,0.33234 -1.322916,0.377976 -0.814885,0.08149 -1.638919,-0.0409 -2.456847,0 -0.444894,0.02225 -0.879298,0.148659 -1.322917,0.188986 -0.250949,0.02281 -0.506899,-0.03831 -0.755951,0 -0.574043,0.08832 -1.129467,0.274082 -1.700893,0.377976 -0.12396,0.02254 -0.251983,0 -0.377975,0 -0.18899,0 -0.377979,0 -0.566965,0 -0.251984,0 -0.508863,-0.04942 -0.755952,0 -0.08736,0.01746 -0.109305,0.149146 -0.188989,0.188989 -0.125246,0.06262 -0.597556,-0.0528 -0.755952,0 -0.133636,0.04455 -0.244343,0.144444 -0.377976,0.18899 -0.05976,0.01992 -0.125992,0 -0.188989,0 -0.125992,0 -0.253251,-0.01783 -0.377976,0 -0.317989,0.04543 -0.626202,0.149145 -0.944941,0.188986 -0.187528,0.02344 -0.380547,-0.03107 -0.566965,0 -0.1965,0.03275 -0.3737,0.140674 -0.566962,0.188989 -2.615631,0.653908 0.250193,-0.06274 -1.511906,0.188987 -0.25713,0.03673 -0.497803,0.160306 -0.755952,0.188989 -0.313055,0.03478 -0.629962,0 -0.94494,0 -0.755952,0 -1.511906,0 -2.267858,0 -0.251984,0 -0.503968,0 -0.755951,0 -0.063,0 -0.127217,-0.01236 -0.18899,0 -0.254696,0.05094 -0.499747,0.146286 -0.755951,0.188987 -0.124278,0.02072 -0.251984,0 -0.377976,0 -0.314981,0 -0.629962,0 -0.944941,0 -0.881944,0 -1.76389,0 -2.645833,0 -2.267858,0 -4.535715,0 -6.803573,0"
       id="path852"
       inkscape:connector-curvature="0" />
  </g>
</svg>
