<?xml version="1.0" encoding="UTF-8" standalone="no"?>
<!-- Generated by graphviz version 2.40.1 (20161225.0304)
 -->

<!-- Title: g0 Pages: 1 -->

<svg
   xmlns:dc="http://purl.org/dc/elements/1.1/"
   xmlns:cc="http://creativecommons.org/ns#"
   xmlns:rdf="http://www.w3.org/1999/02/22-rdf-syntax-ns#"
   xmlns:svg="http://www.w3.org/2000/svg"
   xmlns="http://www.w3.org/2000/svg"
   xmlns:sodipodi="http://sodipodi.sourceforge.net/DTD/sodipodi-0.dtd"
   xmlns:inkscape="http://www.inkscape.org/namespaces/inkscape"
   width="217pt"
   height="260pt"
   viewBox="0.00 0.00 217.00 260.00"
   version="1.1"
   id="svg119"
   sodipodi:docname="g0.svg"
   inkscape:version="0.92.2 5c3e80d, 2017-08-06">
  <metadata
     id="metadata125">
    <rdf:RDF>
      <cc:Work
         rdf:about="">
        <dc:format>image/svg+xml</dc:format>
        <dc:type
           rdf:resource="http://purl.org/dc/dcmitype/StillImage" />
      </cc:Work>
    </rdf:RDF>
  </metadata>
  <defs
     id="defs123" />
  <sodipodi:namedview
     pagecolor="#ffffff"
     bordercolor="#666666"
     borderopacity="1"
     objecttolerance="10"
     gridtolerance="10"
     guidetolerance="10"
     inkscape:pageopacity="0"
     inkscape:pageshadow="2"
     inkscape:window-width="1920"
     inkscape:window-height="1080"
     id="namedview121"
     showgrid="false"
     inkscape:zoom="1.9255062"
     inkscape:cx="129.05704"
     inkscape:cy="183.38234"
     inkscape:window-x="0"
     inkscape:window-y="0"
     inkscape:window-maximized="0"
     inkscape:current-layer="svg119" />
  <g
     class="node"
     id="node1"
     transform="rotate(-90,234.5,0)">
    <title
       id="title6">s1</title>
    <ellipse
       style="fill:none;stroke:#000000"
       id="ellipse8"
       ry="18"
       rx="27"
       cy="-234"
       cx="27" />
    <text
       style="font-size:14px;font-family:Times, serif;text-anchor:middle;fill:#000000"
       id="text10"
       font-size="14.00"
       y="-230.3"
       x="27">s1</text>
  </g>
  <g
     class="node"
     id="node3"
     transform="rotate(-90,231.9682,-1.3632779)">
    <title
       id="title13">v1</title>
    <ellipse
       style="fill:none;stroke:#000000"
       id="ellipse15"
       ry="18"
       rx="27"
       cy="-162"
       cx="110" />
    <text
       style="font-size:14px;font-family:Times, serif;text-anchor:middle;fill:#000000"
       id="text17"
       font-size="14.00"
       y="-158.3"
       x="110">v1</text>
  </g>
  <g
     class="edge"
     id="edge1"
     transform="rotate(-90,234.5,0)">
    <title
       id="title20">s1-&gt;v1</title>
    <path
       style="fill:none;stroke:#000000"
       inkscape:connector-curvature="0"
       id="path22"
       d="m 43.7963,-219.4297 c 12.0035,10.4127 28.3424,24.5862 41.7848,36.247" />
    <polygon
       style="fill:#000000;stroke:#000000"
       id="polygon24"
       points="88.2515,-185.4996 93.5119,-176.3029 83.6646,-180.2118 " />
  </g>
  <g
     class="node"
     id="node4"
     transform="rotate(-90,234.5,0)">
    <title
       id="title27">v3</title>
    <ellipse
       style="fill:none;stroke:#000000"
       id="ellipse29"
       ry="18"
       rx="27"
       cy="-90"
       cx="38" />
    <text
       style="font-size:14px;font-family:Times, serif;text-anchor:middle;fill:#000000"
       id="text31"
       font-size="14.00"
       y="-86.300003"
       x="38">v3</text>
  </g>
  <g
     class="edge"
     id="edge2"
     transform="rotate(-90,234.5,0)">
    <title
       id="title34">s1-&gt;v3</title>
    <path
       style="fill:none;stroke:#000000"
       inkscape:connector-curvature="0"
       id="path36"
       d="m 28.3932,-215.7623 c 1.8762,24.5613 5.2337,68.5149 7.4409,97.4082" />
    <polygon
       style="fill:#000000;stroke:#000000"
       id="polygon38"
       points="39.3462,-118.3272 36.6182,-108.0896 32.3666,-117.794 " />
  </g>
  <g
     class="node"
     id="node2"
     transform="rotate(-90,234.5,0)">
    <title
       id="title41">s2</title>
    <ellipse
       style="fill:none;stroke:#000000"
       id="ellipse43"
       ry="18"
       rx="27"
       cy="-234"
       cx="104" />
    <text
       style="font-size:14px;font-family:Times, serif;text-anchor:middle;fill:#000000"
       id="text45"
       font-size="14.00"
       y="-230.3"
       x="104">s2</text>
  </g>
  <g
     class="edge"
     id="edge3"
     transform="rotate(-90,234.5,0)">
    <title
       id="title48">s2-&gt;v1</title>
    <path
       style="fill:none;stroke:#000000"
       inkscape:connector-curvature="0"
       id="path50"
       d="m 105.5141,-215.8314 c 0.6417,7.7004 1.4047,16.8571 2.1178,25.4148" />
    <polygon
       style="fill:#000000;stroke:#000000"
       id="polygon52"
       points="111.1229,-190.6694 108.4656,-180.4133 104.1471,-190.088 " />
  </g>
  <g
     class="edge"
     id="edge4"
     transform="rotate(-90,234.5,0)">
    <title
       id="title55">s2-&gt;v3</title>
    <path
       style="fill:none;stroke:#000000"
       inkscape:connector-curvature="0"
       id="path57"
       d="M 93.9813,-217.2641 C 87.8646,-206.7425 80.0785,-192.7851 74,-180 c -9.8311,20.6781 -19.3808,44.7977 -26.1713,62.8601" />
    <polygon
       style="fill:#000000;stroke:#000000"
       id="polygon59"
       points="51.0238,-115.6897 44.262,-107.5331 44.4615,-118.1261 " />
  </g>
  <g
     class="edge"
     id="edge5"
     transform="rotate(-90,234.5,0)">
    <title
       id="title62">v1-&gt;v3</title>
    <path
       style="fill:none;stroke:#000000"
       inkscape:connector-curvature="0"
       id="path64"
       d="m 94.7307,-146.7307 c -9.9277,9.9277 -23.046,23.046 -34.167,34.167" />
    <polygon
       style="fill:#000000;stroke:#000000"
       id="polygon66"
       points="62.7933,-109.8436 53.2473,-105.2473 57.8436,-114.7933 " />
  </g>
  <ellipse
     cx="-52.5"
     cy="144.5"
     rx="27"
     ry="18"
     id="ellipse71"
     style="fill:none;stroke:#000000"
     transform="rotate(-90)" />
  <text
     x="-47.436398"
     y="138.4623"
     font-size="14.00"
     id="text73"
     style="font-size:14px;font-family:Times, serif;text-anchor:middle;fill:#000000"
     transform="rotate(-90)">v2</text>
  <g
     class="edge"
     id="edge6"
     transform="rotate(-90,234.5,0)">
    <title
       id="title76">v1-&gt;v2</title>
    <path
       style="fill:none;stroke:#000000"
       inkscape:connector-curvature="0"
       id="path78"
       d="m 125.2693,-146.7307 c 9.9277,9.9277 23.046,23.046 34.167,34.167" />
    <polygon
       style="fill:#000000;stroke:#000000"
       id="polygon80"
       points="162.1564,-114.7933 166.7527,-105.2473 157.2067,-109.8436 " />
  </g>
  <ellipse
     cx="-124.5"
     cy="144.5"
     rx="27"
     ry="18"
     id="ellipse85"
     style="fill:none;stroke:#000000"
     transform="rotate(-90)" />
  <text
     x="-123.33147"
     y="167.6754"
     font-size="14.00"
     id="text87"
     style="font-size:14px;font-family:Times, serif;text-anchor:middle;fill:#000000"
     transform="rotate(-90)">v4</text>
  <g
     class="edge"
     id="edge7"
     transform="rotate(-90,234.5,0)">
    <title
       id="title90">v1-&gt;v4</title>
    <path
       style="fill:none;stroke:#000000"
       inkscape:connector-curvature="0"
       id="path92"
       d="m 110,-143.8314 c 0,7.7004 0,16.8571 0,25.4148" />
    <polygon
       style="fill:#000000;stroke:#000000"
       id="polygon94"
       points="113.5001,-118.4132 110,-108.4133 106.5001,-118.4133 " />
  </g>
  <g
     class="node"
     id="node7"
     transform="rotate(-90,234.5,0)">
    <title
       id="title97">v5</title>
    <ellipse
       style="fill:none;stroke:#000000"
       id="ellipse99"
       ry="18"
       rx="27"
       cy="-18"
       cx="74" />
    <text
       style="font-size:14px;font-family:Times, serif;text-anchor:middle;fill:#000000"
       id="text101"
       font-size="14.00"
       y="-14.3"
       x="74">v5</text>
  </g>
  <g
     class="edge"
     id="edge8"
     transform="rotate(-90,234.5,0)">
    <title
       id="title104">v3-&gt;v5</title>
    <path
       style="fill:none;stroke:#000000"
       inkscape:connector-curvature="0"
       id="path106"
       d="m 46.7146,-72.5708 c 4.2451,8.4901 9.439,18.8779 14.1517,28.3034" />
    <polygon
       style="fill:#000000;stroke:#000000"
       id="polygon108"
       points="64.024,-45.7782 65.3657,-35.2687 57.763,-42.6477 " />
  </g>
  <g
     class="edge"
     id="edge9"
     transform="rotate(-90,234.5,0)">
    <title
       id="title111">v4-&gt;v5</title>
    <path
       style="fill:none;stroke:#000000"
       inkscape:connector-curvature="0"
       id="path113"
       d="m 101.2854,-72.5708 c -4.2451,8.4901 -9.439,18.8779 -14.1517,28.3034" />
    <polygon
       style="fill:#000000;stroke:#000000"
       id="polygon115"
       points="90.237,-42.6477 82.6343,-35.2687 83.976,-45.7782 " />
  </g>
</svg>
